<?xml version="1.0" encoding="UTF-8" standalone="no"?>
<!-- Created with Inkscape (http://www.inkscape.org/) -->

<svg
   version="1.1"
   id="svg9"
   width="604.8374"
   height="331.65128"
   viewBox="0 0 604.83741 331.65127"
   sodipodi:docname="NYCU_暫行款_去背橫式_藍2.svg"
   inkscape:version="1.1.1 (3bf5ae0d25, 2021-09-20)"
   xmlns:inkscape="http://www.inkscape.org/namespaces/inkscape"
   xmlns:sodipodi="http://sodipodi.sourceforge.net/DTD/sodipodi-0.dtd"
   xmlns="http://www.w3.org/2000/svg"
   xmlns:svg="http://www.w3.org/2000/svg">
  <defs
     id="defs13" />
  <sodipodi:namedview
     id="namedview11"
     pagecolor="#505050"
     bordercolor="#ffffff"
     borderopacity="1"
     inkscape:pageshadow="0"
     inkscape:pageopacity="0"
     inkscape:pagecheckerboard="1"
     showgrid="false"
     fit-margin-top="0"
     fit-margin-left="0"
     fit-margin-right="0"
     fit-margin-bottom="0"
     inkscape:zoom="2.5499676"
     inkscape:cx="237.65007"
     inkscape:cy="63.530218"
     inkscape:window-width="3440"
     inkscape:window-height="1411"
     inkscape:window-x="1431"
     inkscape:window-y="-9"
     inkscape:window-maximized="1"
     inkscape:current-layer="g15" />
  <g
     inkscape:groupmode="layer"
     inkscape:label="Image"
     id="g15"
     transform="translate(689.66487,71.543476)">
    <path
       style="fill:#00396d;fill-opacity:1;stroke-width:0.81287"
       d="m -330.05237,259.22304 c -14.7133,-1.71715 -22.05763,-7.73049 -26.17846,-21.43424 -1.61965,-5.3861 -2.41207,-69.20603 -0.99182,-79.8786 2.28557,-17.17501 9.64268,-25.28666 25.22079,-27.80741 3.07766,-0.49802 19.28323,-0.85754 38.81456,-0.86112 l 33.53091,-0.006 v 13.00592 13.00593 h -30.30177 c -33.1893,0 -32.56748,-0.0865 -35.13895,4.8862 -1.75518,3.39414 -1.80801,64.46566 -0.0594,68.6507 2.18628,5.23248 2.71897,5.31154 35.78998,5.31154 h 29.71016 v 13.00592 13.00593 l -32.3116,-0.10546 c -17.77138,-0.058 -34.90935,-0.40863 -38.08438,-0.77918 z m 155.39241,0.0174 c -13.4368,-1.55743 -21.61001,-7.65307 -25.44904,-18.98012 -1.25871,-3.71382 -1.4253,-9.54534 -1.64485,-57.57858 l -0.24429,-53.44623 h 15.47232 15.47231 v 47.94291 c 0,53.51371 -0.0374,53.11859 5.26649,55.63544 3.84571,1.82491 33.49065,1.87882 36.9938,0.0673 5.12293,-2.64918 4.8862,-0.0213 4.8862,-54.24141 v -49.40422 h 15.85097 15.850982 l -0.0141,50.60118 c -0.0152,54.58137 -0.18993,57.21929 -4.33084,65.39098 -4.138052,8.16604 -11.962302,12.6764 -24.489452,14.11715 -7.78964,0.89589 -45.62603,0.82223 -53.62048,-0.10439 z m -510.94055,-65.80463 v -64.23326 l 16.83543,0.21971 16.83543,0.21971 20.75983,38.15326 20.75982,38.15326 0.21118,-38.35648 0.21118,-38.35647 h 15.84301 15.84301 v 64.21676 64.21677 l -16.86705,-0.007 -16.86707,-0.007 -19.91532,-36.66928 c -10.95343,-20.16767 -20.36094,-37.26497 -20.90557,-37.99399 -0.7833,-1.0485 -0.99563,6.61589 -1.01608,36.6762 l -0.0258,38.0017 h -15.85098 -15.85097 z m 204.84335,43.73358 V 216.6697 l -21.25832,-40.26238 c -11.69207,-22.14432 -22.15632,-41.82454 -23.25387,-43.73384 l -1.99555,-3.47146 16.82952,0.21998 16.8295,0.21997 13.57422,26.01186 c 7.46583,14.30652 13.95806,26.68817 14.42718,27.5148 0.71404,1.25819 3.1808,-2.97789 15.14726,-26.01186 l 14.29433,-27.5148 16.80331,-0.21996 16.80331,-0.21997 -3.21479,5.91006 c -1.76813,3.25053 -12.23039,22.95827 -23.24947,43.79497 l -20.03468,37.88491 v 20.43854 20.43855 h -15.85097 -15.85098 z m -11.14705,-185.385496 -4.23767,-4.1311 6.3802,-6.64576 c 4.94916,-5.15517 7.22326,-8.3582 10.13901,-14.280608 7.10577,-14.433092 8.58543,-26.19096082 8.60738,-68.396912 l 0.0126,-24.182897 h 29.66977 29.66977 l -0.005,54.665539 c -0.003,34.958844 -0.30603,55.751098 -0.84086,57.676828 -1.63923,5.90214 -6.07761,7.74626 -20.49245,8.5145 -9.02051,0.48075 -9.5523,0.42309 -9.57053,-1.03759 -0.0106,-0.85064 -0.88424,-3.64993 -1.94142,-6.22063 l -1.92214,-4.674 h 9.59722 c 5.27846,0 10.17582,-0.22203 10.883,-0.49341 1.10798,-0.42517 1.28579,-2.56092 1.28579,-15.444537 l 3.4e-4,-14.951135 h -18.25825 -18.25825 l -0.87205,3.454699 c -1.8775,7.437887 -5.16216,15.918463 -8.40017,21.688213 -3.20181,5.70524 -14.79544,18.85278 -16.46425,18.67099 -0.40947,-0.0446 -2.65143,-1.94008 -4.98214,-4.21219 z m 67.23511,-62.362085 v -10.567316 h -17.07028 -17.07028 v 8.027096 c 0,4.4149022 -0.22862,9.1701952 -0.50804,10.5673162 l -0.50804,2.54021998 h 17.57832 17.57832 z m 0,-32.514819 v -10.567316 h -17.07028 -17.07028 v 10.567316 10.567316 h 17.07028 17.07028 z m 58.95817,96.780054 c -0.64578,-1.24882 -2.45929,-3.9542 -4.03001,-6.01195 l -2.85586,-3.74139 3.4304,-0.88532 c 22.9536,-5.92391 33.34924,-10.00786 45.92039,-18.039935 l 4.28505,-2.737845 -4.30311,-5.399997 c -4.80492,-6.029686 -10.68234,-15.6873828 -13.87944,-22.8064918 l -2.11327,-4.7057052 1.86509,-0.709106 c 1.02579,-0.390008 3.76731,-1.274005 6.09225,-1.96444 l 4.22717,-1.255333 1.97495,4.465703 c 2.12884,4.8136812 9.37208,16.0668272 13.27766,20.628237 2.1419,2.501576 2.56068,2.685163 3.79273,1.662653 3.18009,-2.6392488 9.21683,-11.48279682 13.07803,-19.1587438 l 4.1317,-8.2137062 6.28376,1.813522 c 3.45607,0.997437 6.43992,1.969673 6.63076,2.160524 0.58211,0.582106 -5.87424,13.3333972 -9.48143,18.7258122 -1.8672,2.7912928 -5.24141,7.2300938 -7.49824,9.8639898 l -4.10334,4.788896 2.36378,1.884811 c 4.04987,3.22925 19.16768,10.679755 26.81452,13.214985 4.01827,1.33221 11.00561,3.24571 15.52742,4.25221 l 8.22146,1.83 -4.04242,5.95794 c -2.22333,3.27688 -4.45982,5.9574 -4.96998,5.95672 -0.51016,-6.9e-4 -5.06244,-1.10968 -10.11617,-2.46442 -15.43252,-4.13699 -26.19358,-8.90297 -37.52787,-16.62075 -3.62415,-2.46776 -6.70968,-4.48684 -6.85674,-4.48684 -0.14707,0 -2.78492,1.70088 -5.86191,3.77973 -10.22483,6.90805 -27.21918,14.31208 -43.19982,18.82112 l -5.90336,1.66568 z M -689.66487,-4.8397918 V -64.943901 l 16.05419,-0.255183 c 15.79958,-0.251135 16.11542,-0.222895 19.9145,1.780653 2.12317,1.119709 3.86068,2.41876 3.86114,2.88678 0.001,1.098293 -5.38361,17.115578 -9.31642,27.712659 l -3.05873,8.241842 3.4781,5.12174 c 5.21583,7.680642 7.51648,14.9964122 7.54461,23.9908232 0.0421,13.4680598 -4.83756,19.0269548 -16.70212,19.0269548 -5.26588,0 -5.51786,-0.08813 -5.51786,-1.929973 0,-1.061487 -0.53246,-3.439133 -1.18325,-5.283659 l -1.18324,-3.353684 h 4.34467 c 5.51295,0 7.70195,-1.651289 8.58411,-6.4754718 1.40269,-7.670727 -1.56909,-17.5912102 -7.63756,-25.4958812 l -3.01503,-3.927321 2.84301,-8.672171 c 1.56366,-4.769694 3.7491,-11.689952 4.85653,-15.378351 l 2.01352,-6.706182 h -7.65643 -7.65642 V 0.80199518 55.264314 h -5.28366 -5.28366 z m 67.19717,56.2960958 -3.92899,-3.72547 4.68382,-4.56518 c 6.1235,-5.96839 11.1397,-12.83499 15.04971,-20.601328 1.73942,-3.454935 3.16256,-6.472717 3.16256,-6.706181 0,-0.233465 -2.1033,-0.424107 -4.674,-0.423652 l -4.67401,8.13e-4 -2.30928,4.111564 c -5.75534,10.247064 -18.96099,24.971734 -27.41024,30.563194 l -3.36513,2.22694 -3.48161,-4.01327 -3.48161,-4.01326 3.94599,-2.65738 c 6.20603,-4.17938 14.40236,-12.22153 19.68024,-19.310031 l 4.84191,-6.502964 -4.60192,-0.244609 -4.60191,-0.244609 -6.04337,6.102487 c -3.32385,3.356366 -6.99103,6.723422 -8.14929,7.482346 -2.09115,1.37017 -2.13355,1.35265 -6.04362,-2.498629 l -3.93769,-3.878481 5.00205,-3.827564 c 5.3246,-4.074375 13.54742,-13.3490128 16.60973,-18.73433582 l 1.85323,-3.25906098 h -8.15298 -8.15297 v -5.283658 -5.2836582 h 41.04995 41.04996 v 5.2836582 5.283658 l -27.02794,0.0068 -27.02794,0.0068 -2.14715,4.05751598 -2.14714,4.05753302 h 26.84697 26.84697 l -0.56021,9.5512278 c -1.14989,19.604514 -3.10026,31.621984 -5.80104,35.743894 -2.39434,3.65422 -5.04786,4.63123 -13.50032,4.97073 l -7.99701,0.32119 -0.0357,-2.32993 c -0.0196,-1.28146 -0.53744,-3.73723 -1.1507,-5.45725 l -1.11502,-3.12732 5.01184,0.19941 c 2.7565,0.10968 5.64256,0.14525 6.41347,0.079 2.88232,-0.2475 4.60556,-6.90234 5.97751,-23.083941 l 0.53412,-6.299746 h -3.38927 c -3.09367,0 -3.46929,0.230408 -4.30678,2.641829 -3.54447,10.205735 -13.44142,25.560908 -21.45428,33.286408 l -3.96193,3.81991 z m 418.53856,-0.30088 c -1.71183,-2.24471 -3.79411,-4.44612 -4.62729,-4.89202 -2.33235,-1.24824 -1.88599,-1.85925 3.15914,-4.32455 22.94174,-11.21046 40.0362,-33.1944238 46.05123,-59.223226 l 0.51658,-2.235394 h -24.4016 -24.4016 v -6.909399 -6.909399 h 25.49493 25.49493 l 0.51025,-3.722692 c 0.28064,-2.047481 0.75366,-10.460691 1.05115,-18.696021 l 0.54089,-14.973329 h 6.9087 6.90869 l -0.54162,13.777079 c -0.29789,7.577393 -0.77298,15.990602 -1.05575,18.69602 l -0.51413,4.918943 h 27.75339 27.753402 v 6.909399 6.909399 h -25.192002 -25.192 l 2.04196,5.486875 c 9.19529,24.708287 25.838,44.749905 45.339912,54.599625 l 5.50254,2.77913 -2.79674,2.91096 c -1.5382,1.60103 -3.69791,4.26161 -4.79935,5.91239 l -2.00263,3.00143 -3.9699,-2.09612 c -12.490782,-6.59514 -26.078792,-19.20484 -34.429662,-31.950767 -4.87624,-7.442593 -10.86607,-19.0607948 -13.09624,-25.4022018 -0.58962,-1.676545 -1.29754,-3.048264 -1.57316,-3.048264 -0.27562,0 -1.15357,2.103302 -1.95102,4.674005 -6.98928,22.5311598 -24.10798,43.1886678 -45.22733,54.5768078 l -6.14324,3.3126 z m -324.78738,-67.017273 v -47.552923 h 23.17426 23.17426 l -0.21067,41.253177 -0.21067,41.253176 -16.86706,0.219711 -16.86706,0.21971 v 6.080036 6.080036 h -6.09653 -6.09653 z m 34.14056,10.9737512 V -17.081155 h -10.97375 -10.97375 v 12.1930572 12.193057 h 10.97375 10.97375 z m 0,-34.9534302 v -11.380186 h -10.97375 -10.97375 v 11.380186 11.380187 h 10.97375 10.97375 z m 129.29023,34.8887602 c -2.88191,-2.620595 -5.07666,-4.917706 -4.87722,-5.1046912 0.19943,-0.186985 3.10605,-2.006315 6.45914,-4.042954 10.31799,-6.267063 22.44923,-16.67024 26.90554,-23.072912 l 1.25461,-1.802585 6.62805,2.518166 6.62804,2.518166 -1.7858,2.535901 c -4.98967,7.085497 -24.98949,24.8309342 -33.67787,29.8816902 l -2.29465,1.33393598 z m 100.34568,-2.487854 c -5.75955,-5.8462752 -18.7612,-16.8403662 -25.77743,-21.7972062 l -3.82994,-2.705775 5.28209,-3.998643 5.28208,-3.998644 8.70873,6.34395 c 9.76979,7.116888 21.16977,16.504564 25.20662,20.757177 l 2.67908,2.822288 -5.42809,4.1904302 c -2.98544,2.304735 -5.6542,4.184075 -5.93056,4.176309 -0.27637,-0.0078 -3.06303,-2.613215 -6.19258,-5.789886 z M -639.2669,-43.082994 v -22.770389 h 30.08907 30.08906 l -0.21607,22.557156 -0.21608,22.557155 -29.87299,0.213233 -29.87299,0.213233 z m 47.95936,8.525124 v -4.470787 h -18.28959 -18.28958 v 4.470787 4.470788 h 18.28958 18.28959 z m -0.16074,-17.679932 -0.24569,-4.26757 -18.08637,-0.21877 -18.08637,-0.218768 v 4.486338 4.48634 h 18.33206 18.33207 z m 222.07438,4.26757 v -6.502964 h 26.41829 26.41829 v -8.535141 -8.535139 h 6.90939 6.9094 v 8.535139 8.535141 h 26.82473 26.82472 v 6.502964 6.502963 h -60.15241 -60.15241 z"
       id="path117" />
  </g>
</svg>
