<?xml version="1.0" encoding="UTF-8" standalone="no"?>
<svg
   xmlns:dc="http://purl.org/dc/elements/1.1/"
   xmlns:cc="http://creativecommons.org/ns#"
   xmlns:rdf="http://www.w3.org/1999/02/22-rdf-syntax-ns#"
   xmlns:svg="http://www.w3.org/2000/svg"
   xmlns="http://www.w3.org/2000/svg"
   viewBox="0 0 700 859.99998"
   height="860"
   width="700"
   xml:space="preserve"
   version="1.1"
   id="svg2"><metadata
     id="metadata8"><rdf:RDF><cc:Work
         rdf:about=""><dc:format>image/svg+xml</dc:format><dc:type
           rdf:resource="http://purl.org/dc/dcmitype/StillImage" /><dc:title></dc:title></cc:Work></rdf:RDF></metadata><defs
     id="defs6" /><g
     transform="matrix(1.25,0,0,-1.25,-43.893,902.34578)"
     id="g10"><g
       transform="matrix(0.99998479,0,0,1,6.3069e-4,6.2308672e-5)"
       id="g11119"><g
         id="g11053"><g
           id="g6887"><path
             id="path84"
             style="fill:#4d4f53;fill-opacity:1;fill-rule:nonzero;stroke:none"
             d="m 72.260303,281.44296 c -9.08755,0 -12.966242,3.77413 -12.966242,12.62442 l 0,53.50037 23.831167,0 0,9.82824 -23.831167,0 0,23.3331 -10.847725,0 0,-23.3331 -13.278716,0 0,-9.82824 13.278716,0 0,-53.83591 c 0,-14.90439 7.668516,-22.45553 22.793409,-22.45553 3.629287,0 7.350309,0.51622 11.360871,1.56873 l 0.86862,0.22944 0,10.55381 -1.55377,-0.55064 c -3.159142,-1.11847 -6.229415,-1.63469 -9.655163,-1.63469" /><path
             d="m 221.25197,348.42353 c 23.44702,0 25.99555,-22.65055 26.22202,-29.6826 l -52.57305,0 c 0.83996,13.82607 6.19788,29.6826 26.35103,29.6826 m 0.51028,10.33872 c -35.20064,0 -37.93837,-34.78743 -37.93837,-45.45309 0,-36.57125 25.2674,-42.0317 40.32636,-42.0317 10.34605,0 20.83829,2.01038 28.07107,5.38302 l 0.66795,0.3126 0,11.40557 -1.72864,-0.94927 c -6.42436,-3.53897 -16.26299,-5.644 -26.33096,-5.644 -17.03988,0 -29.89432,8.85603 -29.89432,27.12732 l 62.23395,0 1.1725,-0.0172 0,1.1701 c 0.0459,0.34701 0.16627,1.27047 0.16627,4.44235 0,10.37887 -2.646,44.25431 -36.74581,44.25431"
             style="fill:#4d4f53;fill-opacity:1;fill-rule:nonzero;stroke:none"
             id="path88" /><path
             id="path92"
             style="fill:#4d4f53;fill-opacity:1;fill-rule:nonzero;stroke:none"
             d="m 120.94721,348.42353 c 23.44416,0 25.99269,-22.65055 26.22202,-29.6826 l -52.573047,0 c 0.837086,13.82607 6.195017,29.6826 26.351027,29.6826 m 0.50741,10.33872 c -35.203502,0 -37.935501,-34.78743 -37.935501,-45.45309 0,-36.57125 25.261671,-42.0317 40.323491,-42.0317 10.34892,0 20.84116,2.01038 28.07107,5.38302 l 0.67082,0.3126 0,11.40557 -1.72864,-0.94927 c -6.42436,-3.53897 -16.26586,-5.644 -26.33957,-5.644 -17.03127,0 -29.885706,8.85603 -29.885706,27.12732 l 62.231076,0 1.17537,-0.0172 0,1.1701 c 0.043,0.34701 0.16627,1.27047 0.16627,4.44235 0,10.37887 -2.64887,44.25431 -36.74868,44.25431" /><path
             d="m 165.22708,272.4587 10.84486,0 0,116.78883 -10.84486,0 0,-116.78883 z"
             style="fill:#4d4f53;fill-opacity:1;fill-rule:nonzero;stroke:none"
             id="path96" /><path
             id="path100"
             style="fill:#4d4f53;fill-opacity:1;fill-rule:nonzero;stroke:none"
             d="m 306.34154,358.93171 c -18.16077,0 -39.81321,-7.6171 -39.81321,-43.91017 0,-36.30167 21.65244,-43.9245 39.81321,-43.9245 8.282,0 16.49806,1.51711 24.41311,4.50257 l 0.75396,0.29253 0,10.69147 -1.59391,-0.63094 c -7.19264,-2.83633 -15.05036,-4.34197 -22.72747,-4.34197 -20.45989,0 -29.98605,10.61404 -29.98605,33.41084 0,22.78821 9.52616,33.40224 29.98605,33.40224 7.2213,0 15.08476,-1.5085 22.74754,-4.35344 l 1.57384,-0.58792 0,10.67713 -0.77116,0.27532 c -8.38233,2.97973 -16.58979,4.49684 -24.39591,4.49684" /><path
             d="m 401.01661,315.02298 c 0,-23.03197 -9.25955,-33.75499 -29.13749,-33.75499 -19.6056,0 -29.13463,11.04135 -29.13463,33.75499 0,22.70217 9.52903,33.74352 29.13463,33.74352 19.87794,0 29.13749,-10.72875 29.13749,-33.74352 m -29.13749,43.91017 c -14.87836,0 -39.81608,-5.70996 -39.81608,-43.91017 0,-38.21742 24.93772,-43.92451 39.81608,-43.92451 14.86115,0 39.80748,5.70709 39.80748,43.92451 0,38.20021 -24.94633,43.91017 -39.80748,43.91017"
             style="fill:#4d4f53;fill-opacity:1;fill-rule:nonzero;stroke:none"
             id="path104" /><path
             id="path108"
             style="fill:#4d4f53;fill-opacity:1;fill-rule:nonzero;stroke:none"
             d="m 509.86854,358.93171 c -10.81906,0 -21.73272,-2.77324 -32.44284,-8.24517 -5.34646,5.47766 -13.04078,8.24517 -22.88514,8.24517 -14.73789,0 -27.67546,-5.52354 -34.07115,-8.81587 l -0.63068,-0.32121 0,-77.33535 10.84486,0 0,70.89982 c 4.65558,1.88707 13.22998,4.72341 22.83641,4.72341 14.88122,0 21.81585,-6.55312 21.81585,-20.63156 l 0,-54.99167 10.84773,0 0,54.99167 c 0,5.44038 -0.83996,10.26702 -2.56286,14.72085 8.798,3.92039 17.45841,5.91071 25.73754,5.91071 14.64902,0 21.47185,-6.55312 21.47185,-20.63156 l 0,-54.99167 10.84772,0 0,54.99167 c 0,20.29601 -11.29207,31.48076 -31.80929,31.48076" /></g><g
           id="g10681"><path
             d="m 56.080172,149.94587 -6.272416,-9.02236 -2.485459,0 c 1.634039,3.00554 3.399947,6.01395 5.099921,9.02236 l 3.657954,0 z m -16.66433,-29.35279 21.107769,0 c 0,1.56873 -0.389876,12.28888 -10.520917,12.28888 -6.862963,0 -10.260044,-4.57714 -10.586852,-12.28888 m 24.441782,-1.1787 c 0,-1.43681 -0.06594,-1.63469 -0.06594,-1.69779 l -24.375847,0 c 0.06594,-1.11274 0.260873,-2.02759 0.587681,-2.81339 0.914488,-6.14588 5.228924,-8.50041 11.372337,-8.50041 3.855758,0 7.711517,0.7858 10.323112,2.22548 l 0,-3.33535 c -2.938403,-1.37372 -6.991966,-2.02473 -10.583985,-2.02473 -7.189771,0 -15.033158,3.07151 -15.033158,15.68733 0,5.036 1.568104,16.99795 14.115803,16.99795 13.528122,0 13.659992,-14.44553 13.659992,-16.53909"
             style="fill:#4d4f53;fill-opacity:1;fill-rule:nonzero;stroke:none"
             id="path112" /><path
             id="path116"
             style="fill:#4d4f53;fill-opacity:1;fill-rule:nonzero;stroke:none"
             d="m 82.090918,106.33941 c 3.007205,0 6.077478,0.58792 8.889745,1.70066 l 0,-3.14034 c -2.94127,-1.11274 -6.080345,-1.70065 -9.216553,-1.70065 -6.731093,0 -14.835353,2.74743 -14.835353,16.4129 0,13.59663 8.10426,16.41003 14.835353,16.41003 3.136208,0 6.275283,-0.65675 9.216553,-1.70066 l 0,-3.14033 c -2.812267,1.04678 -5.88254,1.70065 -8.889745,1.70065 -7.189771,0 -11.960018,-3.33248 -11.960018,-13.26969 0,-10.00318 4.770247,-13.27257 11.960018,-13.27257" /><path
             d="m 118.55923,119.61198 c 0,10.00031 -4.64124,13.40162 -11.63321,13.40162 -6.926032,0 -11.63321,-3.40131 -11.63321,-13.40162 0,-10.00318 4.707178,-13.40449 11.63321,-13.40449 6.99197,0 11.63321,3.40131 11.63321,13.40449 m 3.20214,0 c 0,-13.46758 -8.03832,-16.4129 -14.83535,-16.4129 -6.79703,0 -14.835353,2.94532 -14.835353,16.4129 0,13.46471 8.038323,16.41003 14.835353,16.41003 6.79703,0 14.83535,-2.94532 14.83535,-16.41003"
             style="fill:#4d4f53;fill-opacity:1;fill-rule:nonzero;stroke:none"
             id="path120" /><path
             id="path124"
             style="fill:#4d4f53;fill-opacity:1;fill-rule:nonzero;stroke:none"
             d="m 126.66378,147.65701 3.26807,0 0,-43.93311 -3.26807,0 0,43.93311 z" /><path
             d="m 138.22876,120.59222 21.11064,0 c 0,1.56873 -0.39275,12.28888 -10.52379,12.28888 -6.86009,0 -10.26004,-4.57714 -10.58685,-12.28888 m 24.44178,-1.1787 c 0,-1.43681 -0.0631,-1.63183 -0.0631,-1.69779 l -24.37871,0 c 0.0659,-1.11274 0.26374,-2.02759 0.59055,-2.81052 0.91162,-6.14875 5.22606,-8.50041 11.36947,-8.50041 3.85862,0 7.71151,0.78293 10.32598,2.22261 l 0,-3.33535 c -2.94127,-1.37085 -6.99197,-2.02473 -10.58685,-2.02473 -7.18978,0 -15.0303,3.07151 -15.0303,15.6902 0,5.036 1.56811,16.99508 14.11581,16.99508 13.52525,0 13.65712,-14.44554 13.65712,-16.53909"
             style="fill:#4d4f53;fill-opacity:1;fill-rule:nonzero;stroke:none"
             id="path128" /><path
             id="path132"
             style="fill:#4d4f53;fill-opacity:1;fill-rule:nonzero;stroke:none"
             d="m 196.52381,106.20778 c 7.0579,0 9.47743,3.40131 9.47743,6.73379 l 0,18.23974 c -2.6804,1.11274 -5.81948,1.76662 -9.01875,1.76662 -6.9289,0 -11.24047,-3.33535 -11.24047,-13.07468 0,-12.1627 6.27242,-13.66547 10.78179,-13.66547 m 0.45868,29.74569 c 3.19927,0 6.27528,-0.52196 9.01875,-1.4999 l 0,13.20373 3.20214,0 0,-34.58381 c 0,-2.42049 -1.11229,-9.87412 -12.67957,-9.87412 -5.35793,0 -14.04987,2.15952 -14.04987,16.67388 0,13.27256 7.71152,16.08022 14.50855,16.08022" /><path
             d="m 222.14239,146.41436 -4.63838,-12.09387 -3.26807,0 4.2485,12.09387 3.65795,0 z"
             style="fill:#4d4f53;fill-opacity:1;fill-rule:nonzero;stroke:none"
             id="path136" /><path
             id="path140"
             style="fill:#4d4f53;fill-opacity:1;fill-rule:nonzero;stroke:none"
             d="m 227.56425,135.43122 3.20214,0 0,-31.71019 -3.20214,0 0,31.71019 z m -0.19494,10.72302 3.59488,0 0,-4.83812 -3.59488,0 0,4.83812 z" /><path
             d="m 262.59575,124.38413 0,-20.66023 -3.26808,0 0,20.66023 c 0,4.64024 -1.96084,8.36848 -9.34269,8.36848 -3.85862,0 -7.38757,-0.98368 -10.0651,-2.02759 l 0,-27.00112 -3.20215,0 0,28.89679 c 2.21886,1.17583 7.44778,3.40131 13.59119,3.40131 7.77746,0 12.28683,-3.92613 12.28683,-11.63787"
             style="fill:#4d4f53;fill-opacity:1;fill-rule:nonzero;stroke:none"
             id="path144" /><path
             id="path148"
             style="fill:#4d4f53;fill-opacity:1;fill-rule:nonzero;stroke:none"
             d="m 289.97823,126.54078 c 0,3.0715 -2.21885,6.47281 -9.21369,6.47281 -4.31443,0 -10.45498,-1.43967 -10.45498,-13.2066 0,-10.984 5.68474,-12.55273 10.84773,-12.55273 3.07027,0 6.01154,0.65388 8.82094,1.89854 l 0,17.38798 z m 3.20214,-0.13192 0,-24.38562 c 0,-5.033134 -2.28765,-10.788976 -13.72306,-10.788976 -3.52895,0 -6.47022,0.461729 -8.75787,1.049645 l 0,3.071504 c 2.09271,-0.524823 4.96805,-1.046778 8.36513,-1.046778 9.41149,0 10.91366,3.923265 10.91366,7.582685 l 0,3.98923 c -2.8094,-1.04391 -5.81374,-1.63183 -8.82094,-1.63183 -6.40716,0 -14.11581,2.48359 -14.11581,15.55827 0,14.12146 8.49414,16.21501 13.72306,16.21501 11.43541,0 12.41583,-7.39053 12.41583,-9.61314" /><path
             d="m 317.42492,149.94587 -6.27242,-9.02236 -2.48546,0 c 1.63691,3.00554 3.39995,6.01395 5.09993,9.02236 l 3.65795,0 z m -16.66433,-29.35279 21.11064,0 c 0,1.56873 -0.39561,12.28888 -10.52379,12.28888 -6.86296,0 -10.26004,-4.57714 -10.58685,-12.28888 m 24.44178,-1.1787 c 0,-1.43681 -0.0659,-1.63469 -0.0659,-1.69779 l -24.37585,0 c 0.0659,-1.11274 0.26087,-2.02759 0.59055,-2.81339 0.91162,-6.14588 5.22606,-8.50041 11.3666,-8.50041 3.85863,0 7.71438,0.7858 10.32885,2.22548 l 0,-3.33535 c -2.94127,-1.37372 -6.99484,-2.02473 -10.58685,-2.02473 -7.18978,0 -15.03316,3.07151 -15.03316,15.68733 0,5.036 1.5681,16.99795 14.1158,16.99795 13.52812,0 13.65999,-14.44553 13.65999,-16.53909"
             style="fill:#4d4f53;fill-opacity:1;fill-rule:nonzero;stroke:none"
             id="path152" /><path
             id="path156"
             style="fill:#4d4f53;fill-opacity:1;fill-rule:nonzero;stroke:none"
             d="m 355.07031,124.38414 0,-20.66023 -3.26808,0 0,20.66023 c 0,4.64024 -1.96084,8.36848 -9.34269,8.36848 -3.85862,0 -7.38757,-0.98368 -10.0651,-2.02759 l 0,-27.00112 -3.20215,0 0,28.89679 c 2.21886,1.17583 7.44778,3.40131 13.59119,3.40131 7.77746,0 12.28683,-3.92613 12.28683,-11.63787" /><path
             d="m 361.14836,135.43122 3.20214,0 0,-31.71019 -3.20214,0 0,31.71019 z m -0.1978,10.72302 3.59488,0 0,-4.83812 -3.59488,0 0,4.83812 z"
             style="fill:#4d4f53;fill-opacity:1;fill-rule:nonzero;stroke:none"
             id="path160" /><path
             id="path164"
             style="fill:#4d4f53;fill-opacity:1;fill-rule:nonzero;stroke:none"
             d="m 372.45562,120.59222 21.10777,0 c 0,1.56873 -0.39274,12.28888 -10.52378,12.28888 -6.8601,0 -10.26005,-4.57714 -10.58399,-12.28888 m 24.43892,-1.1787 c 0,-1.43681 -0.0631,-1.63183 -0.0631,-1.69779 l -24.37585,0 c 0.0631,-1.11274 0.26087,-2.02759 0.58768,-2.81052 0.91162,-6.14875 5.22606,-8.50041 11.36947,-8.50041 3.85863,0 7.71152,0.78293 10.32598,2.22261 l 0,-3.33535 c -2.94127,-1.37085 -6.99197,-2.02473 -10.58685,-2.02473 -7.18977,0 -15.03029,3.07151 -15.03029,15.6902 0,5.036 1.5681,16.99508 14.1158,16.99508 13.52526,0 13.65713,-14.44554 13.65713,-16.53909" /><path
             d="m 423.75727,135.43294 3.26808,0 0,-18.56955 c 0,-8.75851 -4.83618,-13.59663 -13.20132,-13.59663 -8.4282,0 -13.20131,4.83812 -13.20131,13.59663 l 0,18.56955 3.26808,0 0,-18.76456 c 0,-6.99477 3.26807,-10.45917 9.93323,-10.45917 6.53329,0 9.93324,3.4644 9.93324,10.45917 l 0,18.76456 z"
             style="fill:#4d4f53;fill-opacity:1;fill-rule:nonzero;stroke:none"
             id="path168" /><path
             id="path172"
             style="fill:#4d4f53;fill-opacity:1;fill-rule:nonzero;stroke:none"
             d="m 435.9773,130.85666 0,-27.13305 -3.20214,0 0,29.22374 c 1.82897,0.7858 7.64845,2.94245 14.90129,3.00554 l 0,-3.1346 c -4.96519,-0.13192 -9.21656,-1.24466 -11.69915,-1.96163" /><path
             d="m 470.09259,111.96046 c 0,-5.0991 -3.92169,-8.76138 -11.50421,-8.76138 -4.18256,0 -7.44777,1.04964 -9.93323,2.28857 l 0,3.40131 c 2.87533,-1.50564 6.20934,-2.48359 9.80423,-2.48359 4.83618,0 8.36513,1.82971 8.36513,5.55509 0,9.48122 -17.97156,4.05519 -17.97156,15.2342 0,4.51118 3.07027,8.82734 10.78466,8.82734 3.39708,0 6.27241,-0.91772 8.56007,-1.89567 l 0,-3.20629 c -2.02678,0.98082 -4.83618,1.96163 -8.23326,1.96163 -4.18257,0 -7.84626,-1.56873 -7.84626,-5.68701 0,-7.71461 17.97443,-2.94245 17.97443,-15.2342"
             style="fill:#4d4f53;fill-opacity:1;fill-rule:nonzero;stroke:none"
             id="path176" /><path
             id="path180"
             style="fill:#4d4f53;fill-opacity:1;fill-rule:nonzero;stroke:none"
             d="m 62.877484,67.026458 0,-20.660234 -3.268078,0 0,20.660234 c 0,4.640236 -1.960846,8.368485 -9.345556,8.368485 -3.855758,0 -7.384709,-0.983684 -10.065106,-2.027594 l 0,-27.001125 -3.199276,0 0,28.896796 c 2.22172,1.175832 7.447777,3.40131 13.59119,3.40131 7.777452,0 12.286826,-3.926133 12.286826,-11.637872" /><path
             d="m 93.724412,62.2543 c 0,10.00031 -4.641244,13.401621 -11.63321,13.401621 -6.926032,0 -11.63321,-3.401311 -11.63321,-13.401621 0,-10.003178 4.707178,-13.404488 11.63321,-13.404488 6.991966,0 11.63321,3.40131 11.63321,13.404488 m 3.202143,0 c 0,-13.467582 -8.038325,-16.412898 -14.835353,-16.412898 -6.797029,0 -14.835353,2.945316 -14.835353,16.412898 0,13.464714 8.038324,16.410031 14.835353,16.410031 6.797028,0 14.835353,-2.945317 14.835353,-16.410031"
             style="fill:#4d4f53;fill-opacity:1;fill-rule:nonzero;stroke:none"
             id="path184" /><path
             id="path188"
             style="fill:#4d4f53;fill-opacity:1;fill-rule:nonzero;stroke:none"
             d="m 124.1806,78.075267 3.26808,0 0,-18.569547 c 0,-8.758517 -4.83905,-13.596637 -13.20132,-13.596637 -8.43106,0 -13.20131,4.83812 -13.20131,13.596637 l 0,18.569547 3.26521,0 0,-18.764563 c 0,-6.994768 3.26808,-10.459172 9.9361,-10.459172 6.53329,0 9.93324,3.464404 9.93324,10.459172 l 0,18.764563 z" /><path
             d="m 155.80986,78.075267 3.46588,0 -12.81144,-31.71019 -3.26521,0 c -4.31443,10.525133 -8.497,21.119095 -12.80857,31.71019 l 3.46302,0 10.97959,-27.65787 10.97673,27.65787 z"
             style="fill:#4d4f53;fill-opacity:1;fill-rule:nonzero;stroke:none"
             id="path192" /><path
             id="path196"
             style="fill:#4d4f53;fill-opacity:1;fill-rule:nonzero;stroke:none"
             d="m 162.87034,63.234542 21.10777,0 c 0,1.568732 -0.39274,12.288882 -10.52378,12.288882 -6.8601,0 -10.26005,-4.577143 -10.58399,-12.288882 m 24.43892,-1.1787 c 0,-1.43681 -0.0631,-1.631826 -0.0631,-1.697787 l -24.37585,0 c 0.0631,-1.112739 0.26087,-2.027594 0.58768,-2.810526 0.91162,-6.148743 5.22606,-8.500408 11.36947,-8.500408 3.85863,0 7.71152,0.782933 10.32598,2.22261 l 0,-3.335349 c -2.94127,-1.370848 -6.99197,-2.024725 -10.58685,-2.024725 -7.18977,0 -15.03029,3.071503 -15.03029,15.690191 0,5.036004 1.5681,16.995079 14.1158,16.995079 13.52526,0 13.65713,-14.44553 13.65713,-16.539085" /><path
             d="m 191.81892,90.299335 3.26807,0 0,-43.93311 -3.26807,0 0,43.93311 z"
             style="fill:#4d4f53;fill-opacity:1;fill-rule:nonzero;stroke:none"
             id="path200" /><path
             d="m 201.68908,90.299335 3.26808,0 0,-43.93311 -3.26808,0 0,43.93311 z"
             style="fill:#4d4f53;fill-opacity:1;fill-rule:nonzero;stroke:none"
             id="path202" /><path
             id="path206"
             style="fill:#4d4f53;fill-opacity:1;fill-rule:nonzero;stroke:none"
             d="m 213.25665,63.234543 21.11064,0 c 0,1.568732 -0.39275,12.288882 -10.52379,12.288882 -6.86009,0 -10.26004,-4.577143 -10.58685,-12.288882 m 24.44178,-1.1787 c 0,-1.43681 -0.0631,-1.631826 -0.0631,-1.697787 l -24.37871,0 c 0.0659,-1.112739 0.26374,-2.027594 0.59055,-2.810526 0.91162,-6.148743 5.22606,-8.500408 11.36947,-8.500408 3.85862,0 7.71151,0.782933 10.32598,2.22261 l 0,-3.335349 c -2.94127,-1.370848 -6.99197,-2.024725 -10.58685,-2.024725 -7.18978,0 -15.0303,3.071503 -15.0303,15.690191 0,5.036004 1.56811,16.995079 14.11581,16.995079 13.52525,0 13.65712,-14.44553 13.65712,-16.539085" /><path
             d="m 261.55425,54.602787 c 0,-5.099097 -3.92169,-8.761385 -11.50421,-8.761385 -4.18256,0 -7.44777,1.049646 -9.93323,2.288571 l 0,3.401311 c 2.87533,-1.505639 6.20934,-2.483588 9.80423,-2.483588 4.83618,0 8.36513,1.82971 8.36513,5.555091 0,9.481224 -17.97156,4.055188 -17.97156,15.234198 0,4.511181 3.07027,8.827346 10.78466,8.827346 3.39708,0 6.27241,-0.917723 8.56007,-1.895671 l 0,-3.206294 c -2.02678,0.980816 -4.83618,1.961633 -8.23326,1.961633 -4.18257,0 -7.84626,-1.568733 -7.84626,-5.687014 0,-7.714607 17.97443,-2.942448 17.97443,-15.234198"
             style="fill:#4d4f53;fill-opacity:1;fill-rule:nonzero;stroke:none"
             id="path210" /><path
             id="path214"
             style="fill:#4d4f53;fill-opacity:1;fill-rule:nonzero;stroke:none"
             d="m 296.31914,49.569938 0,-3.071503 c -1.2413,-0.329807 -2.6804,-0.587917 -4.24563,-0.587917 -2.41953,0 -8.30207,0.25811 -8.30207,8.170601 l 0,21.119096 -5.09419,0 0,2.873619 5.09419,0 0,8.959269 3.27095,0 0,-8.959269 9.14775,0 0,-2.873619 -9.14775,0 0,-20.990041 c 0,-4.313297 2.48259,-5.296981 5.42099,-5.296981 1.50504,0 2.74633,0.263845 3.85576,0.656745" /><path
             d="m 300.50171,63.234543 21.11064,0 c 0,1.568732 -0.39275,12.288882 -10.52379,12.288882 -6.86009,0 -10.26004,-4.577143 -10.58685,-12.288882 m 24.44178,-1.1787 c 0,-1.43681 -0.0631,-1.631826 -0.0631,-1.697787 l -24.37871,0 c 0.0659,-1.112739 0.26374,-2.027594 0.59055,-2.810526 0.91162,-6.148743 5.22606,-8.500408 11.36947,-8.500408 3.85862,0 7.71151,0.782933 10.32598,2.22261 l 0,-3.335349 c -2.94127,-1.370848 -6.99197,-2.024725 -10.58685,-2.024725 -7.18978,0 -15.0303,3.071503 -15.0303,15.690191 0,5.036004 1.56811,16.995079 14.11581,16.995079 13.52525,0 13.65712,-14.44553 13.65712,-16.539085"
             style="fill:#4d4f53;fill-opacity:1;fill-rule:nonzero;stroke:none"
             id="path218" /><path
             id="path222"
             style="fill:#4d4f53;fill-opacity:1;fill-rule:nonzero;stroke:none"
             d="m 343.1808,48.981735 c 3.0072,0 6.07748,0.587916 8.88974,1.700655 l 0,-3.140333 c -2.94413,-1.112738 -6.08034,-1.700655 -9.21655,-1.700655 -6.73109,0 -14.83535,2.747433 -14.83535,16.412899 0,13.596636 8.10426,16.41003 14.83535,16.41003 3.13621,0 6.27242,-0.656745 9.21655,-1.700655 l 0,-3.140332 c -2.81226,1.046777 -5.88254,1.700655 -8.88974,1.700655 -7.18977,0 -11.96002,-3.332481 -11.96002,-13.269698 0,-10.003179 4.77025,-13.272566 11.96002,-13.272566" /><path
             d="m 381.54287,65.782945 0,-19.418441 -3.20214,0 0,19.418441 c 0,6.66783 -3.13908,9.613146 -9.15062,9.613146 -4.05356,0 -7.84339,-1.244661 -10.52092,-2.420494 l 0,-26.611093 -3.26808,0 0,43.935979 3.26808,0 0,-14.187421 c 2.87247,1.241794 6.7311,2.549549 10.91366,2.549549 7.58252,0 11.96002,-4.379259 11.96002,-12.879666"
             style="fill:#4d4f53;fill-opacity:1;fill-rule:nonzero;stroke:none"
             id="path226" /><path
             id="path230"
             style="fill:#4d4f53;fill-opacity:1;fill-rule:nonzero;stroke:none"
             d="m 412.58416,67.026459 0,-20.660234 -3.26808,0 0,20.660234 c 0,4.640236 -1.96084,8.368485 -9.34269,8.368485 -3.85862,0 -7.38757,-0.983684 -10.0651,-2.027594 l 0,-27.001125 -3.20215,0 0,28.896796 c 2.21886,1.175832 7.44778,3.40131 13.59119,3.40131 7.77746,0 12.28683,-3.926133 12.28683,-11.637872" /><path
             d="m 443.42965,62.254301 c 0,10.00031 -4.63838,13.401621 -11.63321,13.401621 -6.92603,0 -11.63034,-3.401311 -11.63034,-13.401621 0,-10.003178 4.70431,-13.404488 11.63034,-13.404488 6.99483,0 11.63321,3.40131 11.63321,13.404488 m 3.20214,0 c 0,-13.467582 -8.03832,-16.412898 -14.83535,-16.412898 -6.79416,0 -14.83249,2.945316 -14.83249,16.412898 0,13.464714 8.03833,16.410031 14.83249,16.410031 6.79703,0 14.83535,-2.945317 14.83535,-16.410031"
             style="fill:#4d4f53;fill-opacity:1;fill-rule:nonzero;stroke:none"
             id="path234" /><path
             id="path238"
             style="fill:#4d4f53;fill-opacity:1;fill-rule:nonzero;stroke:none"
             d="m 451.53649,90.299335 3.26808,0 0,-43.93311 -3.26808,0 0,43.93311 z" /><path
             d="m 486.10874,62.2543 c 0,10.00031 -4.63838,13.401621 -11.63321,13.401621 -6.92603,0 -11.63034,-3.401311 -11.63034,-13.401621 0,-10.003178 4.70431,-13.404488 11.63034,-13.404488 6.99483,0 11.63321,3.40131 11.63321,13.404488 m 3.20214,0 c 0,-13.467582 -8.03832,-16.412898 -14.83535,-16.412898 -6.79703,0 -14.83249,2.945316 -14.83249,16.412898 0,13.464714 8.03546,16.410031 14.83249,16.410031 6.79703,0 14.83535,-2.945317 14.83535,-16.410031"
             style="fill:#4d4f53;fill-opacity:1;fill-rule:nonzero;stroke:none"
             id="path242" /><path
             id="path246"
             style="fill:#4d4f53;fill-opacity:1;fill-rule:nonzero;stroke:none"
             d="m 515.31905,69.183107 c 0,3.071503 -2.21885,6.472814 -9.21369,6.472814 -4.31443,0 -10.45498,-1.439678 -10.45498,-13.206605 0,-10.983994 5.68474,-12.552727 10.84773,-12.552727 3.07027,0 6.01154,0.653878 8.82094,1.898539 l 0,17.387979 z m 3.20214,-0.131923 0,-24.385615 c 0,-5.033136 -2.28765,-10.788978 -13.72306,-10.788978 -3.52895,0 -6.47022,0.461729 -8.75787,1.049645 l 0,3.071504 c 2.09271,-0.524823 4.96805,-1.046778 8.36513,-1.046778 9.41149,0 10.91366,3.923265 10.91366,7.582685 l 0,3.989226 c -2.8094,-1.04391 -5.81374,-1.631826 -8.82094,-1.631826 -6.40716,0 -14.11581,2.483587 -14.11581,15.558269 0,14.121459 8.49414,16.215015 13.72306,16.215015 11.43541,0 12.41583,-7.390537 12.41583,-9.613147" /><path
             d="m 524.14229,78.073547 3.20214,0 0,-31.71019 -3.20214,0 0,31.71019 z m -0.19494,10.723017 3.59488,0 0,-4.83812 -3.59488,0 0,4.83812 z"
             style="fill:#4d4f53;fill-opacity:1;fill-rule:nonzero;stroke:none"
             id="path250" /><path
             id="path254"
             style="fill:#4d4f53;fill-opacity:1;fill-rule:nonzero;stroke:none"
             d="m 535.4507,63.234543 21.10777,0 c 0,1.568732 -0.39274,12.288882 -10.52378,12.288882 -6.8601,0 -10.26005,-4.577143 -10.58399,-12.288882 m 24.43892,-1.1787 c 0,-1.43681 -0.0631,-1.631826 -0.0631,-1.697787 l -24.37585,0 c 0.0631,-1.112739 0.26087,-2.027594 0.58768,-2.810526 0.91162,-6.148743 5.22606,-8.500408 11.36947,-8.500408 3.85863,0 7.71152,0.782933 10.32598,2.22261 l 0,-3.335349 c -2.94127,-1.370848 -6.99197,-2.024725 -10.58685,-2.024725 -7.18977,0 -15.03029,3.071503 -15.03029,15.690191 0,5.036004 1.5681,16.995079 14.1158,16.995079 13.52526,0 13.65713,-14.44553 13.65713,-16.539085" /><path
             d="m 583.74544,54.602787 c 0,-5.099097 -3.92169,-8.761385 -11.50421,-8.761385 -4.18256,0 -7.44777,1.049646 -9.93323,2.288571 l 0,3.401311 c 2.87533,-1.505639 6.20934,-2.483588 9.80423,-2.483588 4.83618,0 8.36513,1.82971 8.36513,5.555091 0,9.481224 -17.97156,4.055188 -17.97156,15.234198 0,4.511181 3.07027,8.827346 10.78466,8.827346 3.39708,0 6.27241,-0.917723 8.56007,-1.895671 l 0,-3.206294 c -2.02678,0.980816 -4.83618,1.961633 -8.23326,1.961633 -4.18257,0 -7.84626,-1.568733 -7.84626,-5.687014 0,-7.714607 17.97443,-2.942448 17.97443,-15.234198"
             style="fill:#4d4f53;fill-opacity:1;fill-rule:nonzero;stroke:none"
             id="path258" /></g><g
           id="g11026"><path
             id="path262"
             style="fill:#d9231f;fill-opacity:1;fill-rule:nonzero;stroke:none"
             d="m 76.411911,201.15336 c 0,-9.74507 -7.490778,-16.74271 -21.98499,-16.74271 -7.992457,0 -14.241939,1.99318 -18.983518,4.3764 l 0,6.49575 c 5.492664,-2.87935 11.862549,-4.74921 18.731245,-4.74921 9.248087,0 15.990648,3.50168 15.990648,10.61977 0,18.11929 -34.349218,7.74615 -34.349218,29.11476 0,8.62085 5.871073,16.87749 20.608957,16.87749 6.496022,0 11.991552,-1.74654 16.363323,-3.625 l 0,-6.1258 c -3.867225,1.86986 -9.239486,3.74545 -15.741241,3.74545 -7.986724,0 -14.984424,-2.99694 -14.984424,-10.87214 0,-14.74666 34.349218,-5.61819 34.349218,-29.11476" /><path
             d="m 123.9203,216.15354 c -1.62544,0.25237 -7.12097,1.12134 -15.36283,1.12134 -7.62265,0 -22.119729,-1.75514 -22.119729,-13.86335 0,-11.13025 11.62461,-13.25249 19.115389,-13.25249 7.37037,0 18.36717,1.99892 18.36717,12.99438 l 0,13.00012 z m 6.12048,5.49487 0,-18.49499 c 0,-16.49606 -16.865,-18.6183 -24.48765,-18.6183 -7.863454,0 -25.230134,2.49793 -25.230134,18.87641 0,18.85921 23.355284,19.61346 28.976954,19.61346 8.12146,0 12.49897,-0.87184 14.49421,-1.25327 0,12.74201 -6.24948,19.12305 -19.98974,19.12305 -7.869186,0 -14.362341,-1.87559 -17.234809,-2.7503 l 0,6.00535 c 4.49504,1.4999 10.738789,2.86788 17.613219,2.86788 17.98589,0 25.85795,-8.87323 25.85795,-25.36929"
             style="fill:#d9231f;fill-opacity:1;fill-rule:nonzero;stroke:none"
             id="path266" /><path
             id="path270"
             style="fill:#d9231f;fill-opacity:1;fill-rule:nonzero;stroke:none"
             d="m 136.32753,246.01968 6.12334,0 0,-60.61272 -6.12334,0 0,60.61272 z" /><path
             d="m 197.75277,224.90288 0,-39.49363 -6.24375,0 0,39.49363 c 0,8.8675 -3.74969,15.99132 -17.86262,15.99132 -7.37038,0 -14.11867,-1.8756 -19.23866,-3.88025 l 0,-51.6047 -6.12048,0 0,55.23258 c 4.2485,2.25128 14.24194,6.50436 25.98408,6.50436 14.86116,0 23.48143,-7.49952 23.48143,-22.24331"
             style="fill:#d9231f;fill-opacity:1;fill-rule:nonzero;stroke:none"
             id="path274" /><path
             id="path278"
             style="fill:#d9231f;fill-opacity:1;fill-rule:nonzero;stroke:none"
             d="m 232.85049,191.53591 0,-5.88203 c -2.37079,-0.62233 -5.11999,-1.11847 -8.11859,-1.11847 -4.62118,0 -15.86738,0.49614 -15.86738,15.62136 l 0,40.35686 -9.74117,0 0,5.50633 9.74117,0 0,17.1184 6.24661,0 0,-17.1184 17.48995,0 0,-5.50633 -17.48995,0 0,-40.11022 c 0,-8.24517 4.75305,-10.1179 10.37185,-10.1179 2.87534,0 5.24326,0.49328 7.36751,1.2504" /><path
             d="m 234.5132,223.89396 24.83739,0 0,-5.99388 -24.83739,0 0,5.99388 z"
             style="fill:#d9231f;fill-opacity:1;fill-rule:nonzero;stroke:none"
             id="path282" /><path
             id="path286"
             style="fill:#d9231f;fill-opacity:1;fill-rule:nonzero;stroke:none"
             d="m 276.14277,217.64914 40.34929,0 c 0,3.00267 -0.74821,23.49084 -20.11014,23.49084 -13.12105,0 -19.6142,-8.74131 -20.23915,-23.49084 m 46.71918,-2.25129 c 0,-2.74456 -0.12327,-3.12599 -0.12327,-3.23784 l -46.59591,0 c 0.12614,-2.12797 0.50168,-3.88311 1.12663,-5.38302 1.74871,-11.74685 9.99343,-16.24369 21.73845,-16.24369 7.36751,0 14.73501,1.4999 19.73173,4.2502 l 0,-6.37243 c -5.62166,-2.62699 -13.36471,-3.87738 -20.23628,-3.87738 -13.74026,0 -28.73041,5.87629 -28.73041,29.99519 0,9.61888 2.99573,32.48739 26.9817,32.48739 25.85795,0 26.10736,-27.61485 26.10736,-31.61842" /><path
             d="m 355.77579,191.53591 0,-5.88203 c -2.37079,-0.62233 -5.11999,-1.11847 -8.11859,-1.11847 -4.61831,0 -15.86165,0.49614 -15.86165,15.62136 l 0,40.35686 -9.74403,0 0,5.50633 9.74403,0 0,17.1184 6.24375,0 0,-17.1184 17.48995,0 0,-5.50633 -17.48995,0 0,-40.11022 c 0,-8.24517 4.75018,-10.1179 10.36325,-10.1179 2.8782,0 5.25472,0.49328 7.37324,1.2504"
             style="fill:#d9231f;fill-opacity:1;fill-rule:nonzero;stroke:none"
             id="path290" /><path
             id="path294"
             style="fill:#d9231f;fill-opacity:1;fill-rule:nonzero;stroke:none"
             d="m 360.43452,246.01968 6.12335,0 0,-60.61272 -6.12335,0 0,60.61272 z" /><path
             d="m 378.48004,217.64914 40.35789,0 c 0,3.00267 -0.75681,23.49084 -20.11587,23.49084 -13.11818,0 -19.60847,-8.74131 -20.24202,-23.49084 m 46.72491,-2.25129 c 0,-2.74456 -0.129,-3.12599 -0.129,-3.23784 l -46.59591,0 c 0.12327,-2.12797 0.50455,-3.88311 1.12376,-5.38302 1.75444,-11.74685 9.99917,-16.24369 21.74418,-16.24369 7.37038,0 14.74076,1.4999 19.73461,4.2502 l 0,-6.37243 c -5.62167,-2.62699 -13.36759,-3.87738 -20.23628,-3.87738 -13.74313,0 -28.73042,5.87629 -28.73042,29.99519 0,9.61888 2.9986,32.48739 26.97884,32.48739 25.86655,0 26.11022,-27.61485 26.11022,-31.61842"
             style="fill:#d9231f;fill-opacity:1;fill-rule:nonzero;stroke:none"
             id="path298" /><path
             id="path302"
             style="fill:#d9231f;fill-opacity:1;fill-rule:nonzero;stroke:none"
             d="m 480.66079,224.90288 0,-39.49363 -6.24948,0 0,39.49363 c 0,8.8675 -3.74396,15.99132 -17.85976,15.99132 -7.37038,0 -14.11867,-1.8756 -19.23866,-3.88025 l 0,-51.6047 -6.11761,0 0,55.23258 c 4.2485,2.25128 14.23907,6.50436 25.98122,6.50436 14.86402,0 23.48429,-7.49952 23.48429,-22.24331" /><path
             d="m 536.08051,224.90288 0,-39.49363 -6.24375,0 0,39.49363 c 0,8.8675 -3.75542,15.99132 -17.86549,15.99132 -7.36751,0 -14.11294,-1.8756 -19.24153,-3.88025 l 0,-51.6047 -6.12047,0 0,55.23258 c 4.25136,2.25128 14.25054,6.50436 25.98695,6.50436 14.86402,0 23.48429,-7.49952 23.48429,-22.24331"
             style="fill:#d9231f;fill-opacity:1;fill-rule:nonzero;stroke:none"
             id="path306" /><path
             id="path310"
             style="fill:#d9231f;fill-opacity:1;fill-rule:nonzero;stroke:none"
             d="m 548.39285,217.64914 40.34356,0 c 0,3.00267 -0.74535,23.49084 -20.11015,23.49084 -13.10957,0 -19.61133,-8.74131 -20.23341,-23.49084 m 46.72205,-2.25129 c 0,-2.74456 -0.12614,-3.12599 -0.12614,-3.23784 l -46.59591,0 c 0.12614,-2.12797 0.49595,-3.88311 1.11803,-5.38302 1.76017,-11.74685 9.99917,-16.24369 21.73558,-16.24369 7.37898,0 14.74362,1.4999 19.7432,4.2502 l 0,-6.37243 c -5.62166,-2.62699 -13.36758,-3.87738 -20.23628,-3.87738 -13.74026,0 -28.73615,5.87629 -28.73615,29.99519 0,9.61888 3.00434,32.48739 26.98458,32.48739 25.86081,0 26.11309,-27.61485 26.11309,-31.61842" /><path
             d="m 305.89087,257.72122 -11.01686,0 -3.29961,-5.85335 10.62125,0 3.69522,5.85335 z"
             style="fill:#d9231f;fill-opacity:1;fill-rule:nonzero;stroke:none"
             id="path314" /><path
             id="path318"
             style="fill:#d9231f;fill-opacity:1;fill-rule:nonzero;stroke:none"
             d="m 136.35618,257.68624 6.10615,0 0,-6.35237 -6.10615,0 0,6.35237 z" /><path
             id="path320"
             style="fill:#d9231f;fill-opacity:1;fill-rule:nonzero;stroke:none"
             d="m 360.25964,257.68624 6.11188,0 0,-6.35237 -6.11188,0 0,6.35237 z" /></g></g><g
         id="g11044"><path
           id="path346"
           style="fill:#e12f23;fill-opacity:1;fill-rule:nonzero;stroke:none"
           d="m 290.54325,642.44536 c 4.06789,-11.87311 6.30681,-24.59798 6.30681,-37.85055 0,-39.62578 -19.74891,-74.61991 -49.92413,-95.73052 -17.16886,-24.08463 -43.23318,-41.17445 -73.41127,-46.85003 -0.2494,-0.0459 -0.50454,-0.0889 -0.75682,-0.13479 -1.91211,-0.34702 -3.84142,-0.64241 -5.78219,-0.89765 -0.47588,-0.0602 -0.95176,-0.12332 -1.43337,-0.18068 -1.79457,-0.21222 -3.60635,-0.3757 -5.42672,-0.50475 -0.50741,-0.0344 -1.00909,-0.086 -1.5165,-0.11472 -2.24465,-0.12905 -4.49504,-0.39577 -6.76549,-0.39577 l -0.0143,0 c -0.043,0 -0.0774,-0.003 -0.11467,-0.003 -0.36694,0 -0.72815,0.0287 -1.09509,0.0344 -1.80031,0.0201 -3.59202,0.066 -5.37513,0.16634 -0.043,0 0.20928,0.11471 0.16054,0.12045 20.5172,-13.89211 42.87484,-22.54743 68.9793,-22.16887 64.65627,0.93493 117.10312,51.26659 117.10312,115.7542 0,35.53616 -15.89316,67.34118 -40.93406,88.75579" /><path
           id="path350"
           style="fill:#6ec72d;fill-opacity:1;fill-rule:nonzero;stroke:none"
           d="m 221.52067,670.23787 c 26.28796,-1.50564 50.23093,-11.71817 69.02238,-27.79266 -15.71831,45.90621 -59.20095,78.91842 -110.4209,78.91842 -39.21693,0 -73.89582,-19.37542 -95.058061,-49.05515 18.926181,13.22955 41.928861,21.01299 66.769121,21.01299 26.12169,0 50.23666,-8.58358 69.68746,-23.0836" /><path
           d="m 268.33474,576.31611 c 0,-25.24024 -8.08993,-46.84401 -21.40878,-67.44976 31.05821,20.78356 50.61794,55.89506 50.61794,95.52061 0,13.25249 -2.54279,26.49064 -7.00056,38.05968 -18.79432,16.07449 -42.73442,26.28702 -69.02238,27.78979 28.55555,-21.28543 46.81378,-55.56238 46.81378,-93.92032"
           style="fill:#589e23;fill-opacity:1;fill-rule:nonzero;stroke:none"
           id="path354" /><path
           id="path358"
           style="fill:#085182;fill-opacity:1;fill-rule:nonzero;stroke:none"
           d="m 104.1554,515.98989 c -4.0335,11.83002 -6.258082,24.49746 -6.258082,37.69833 0,64.4815 52.269182,116.75728 116.727712,116.75728 l 0.003,0 c 0.0459,0 0.086,0.003 0.12613,0.003 2.27332,0 4.52658,-0.0832 6.7655,-0.20936 -19.4508,14.49716 -43.56577,23.0836 -69.6846,23.0836 -24.84025,0 -47.8458,-7.78344 -66.769118,-21.01585 -13.61699,-19.10011 -22.386333,-42.46189 -22.386333,-67.7136 0,-35.44991 16.546794,-67.18878 41.475921,-88.60327" /><path
           d="m 221.54303,670.26741 c -2.23892,0.12619 -4.59538,0.33554 -6.8687,0.33554 -64.79681,0 -117.154852,-52.4708 -117.154852,-116.91214 0,-13.25823 2.600132,-26.32431 6.665162,-38.20022 7.70865,-22.49854 22.21146,-41.56137 40.9083,-55.49355 0.0487,-0.003 0.0946,-0.0115 0.14047,-0.0143 1.78311,-0.0975 3.57482,-0.1434 5.37513,-0.16347 0.40421,-0.006 0.79982,-0.0315 1.2069,-0.0315 2.27618,0.003 4.53517,0.0774 6.78269,0.20935 0.51028,0.0287 1.01196,0.0774 1.5165,0.11472 1.82038,0.13192 3.63216,0.29252 5.42673,0.50188 0.48162,0.0574 0.95749,0.12332 1.43337,0.18354 1.94365,0.25525 3.87296,0.54777 5.78221,0.89765 0.25227,0.0459 0.50741,0.0889 0.75681,0.13479 30.03479,5.68702 55.98447,22.89145 73.13041,46.83828 0.0459,0.066 0.10034,0.12905 0.15194,0.19788 13.61126,19.09724 21.64385,42.44755 21.64385,67.68779 0,38.35795 -18.34424,72.42554 -46.89692,93.71384"
           style="fill:#d9231f;fill-opacity:1;fill-rule:nonzero;stroke:none"
           id="path362" /><path
           id="path366"
           style="fill:#0a629c;fill-opacity:1;fill-rule:nonzero;stroke:none"
           d="m 104.20843,515.83302 c -0.0172,0.0516 -0.0344,0.10611 -0.0516,0.15773 -24.931995,21.41449 -40.747771,53.15336 -40.747771,88.60327 0,25.25172 8.038325,48.61063 21.655315,67.7136 C 54.880523,651.2 35.114385,616.19461 35.114385,576.55472 c 0,-50.93935 31.124141,-92.04186 76.728165,-108.46336 l 0,30.20455 c -2.94988,5.54362 -5.5242,11.37403 -7.63412,17.53711" /><path
           d="m 205.52687,652.00845 -93.6849,-54.49839 0,-99.21444 0,-30.39383 c 6.67663,-2.68721 37.00382,-12.0996 44.15919,-14.38244 l 0,118.03349 50.58354,29.37287 0,-163.30591 c 16.26872,-1.10987 32.00996,1.88994 43.01535,5.3314 l 0,182.90789 -44.07318,26.14936 z"
           style="fill:#ffffff;fill-opacity:1;fill-rule:nonzero;stroke:none"
           id="path370" /></g></g></g></svg>